# Blender v2.93.0 OBJ File: ''
# www.blender.org
o Kolye_Cube
v 0.116219 0.629793 0.408705
v 0.116219 0.562091 0.399081
v 0.083654 0.570553 0.339550
v 0.083654 0.638255 0.349173
v 0.047287 0.581972 0.397500
v 0.047287 0.611139 0.401646
v 0.039988 0.585989 0.369242
v 0.039988 0.615156 0.373389
v 0.152476 0.616029 0.367248
v 0.152476 0.586862 0.363102
v 0.132822 0.619118 0.345520
v 0.132822 0.589950 0.341374
v 0.209339 0.638109 0.350198
v 0.209339 0.570408 0.340574
v 0.156315 0.644186 0.307447
v 0.156315 0.576484 0.297823
v 0.222433 0.625495 0.300658
v 0.222433 0.596327 0.296512
v 0.196636 0.627497 0.286571
v 0.196636 0.598330 0.282425
v 0.261985 0.649279 0.271614
v 0.261985 0.581578 0.261991
v 0.198098 0.652711 0.247471
v 0.198098 0.585010 0.237848
v 0.264513 0.638728 0.207559
v 0.264513 0.609561 0.203413
v 0.235505 0.639452 0.202467
v 0.235505 0.610285 0.198321
v 0.295821 0.667525 0.143259
v 0.295821 0.599823 0.133635
v 0.227444 0.667641 0.142438
v 0.227444 0.599940 0.132814
v -0.116219 0.629793 0.408705
v -0.116219 0.562091 0.399081
v -0.083654 0.570553 0.339550
v -0.083654 0.638255 0.349173
v -0.047287 0.581972 0.397500
v -0.047287 0.611139 0.401646
v -0.039988 0.585989 0.369242
v -0.039988 0.615156 0.373389
v 0.000000 0.568777 0.352043
v 0.000000 0.636479 0.361666
v 0.000000 0.559154 0.419744
v 0.000000 0.626855 0.429368
v -0.152476 0.616029 0.367248
v -0.152476 0.586862 0.363102
v -0.132822 0.619118 0.345520
v -0.132822 0.589950 0.341374
v -0.209339 0.638109 0.350198
v -0.209339 0.570408 0.340574
v -0.156315 0.644186 0.307447
v -0.156315 0.576484 0.297823
v -0.222433 0.625495 0.300658
v -0.222433 0.596327 0.296512
v -0.196636 0.627497 0.286571
v -0.196636 0.598330 0.282425
v -0.261985 0.649279 0.271614
v -0.261985 0.581578 0.261991
v -0.198098 0.652711 0.247471
v -0.198098 0.585010 0.237848
v -0.264513 0.638728 0.207559
v -0.264513 0.609561 0.203413
v -0.235505 0.639452 0.202467
v -0.235505 0.610285 0.198321
v -0.295821 0.667525 0.143259
v -0.295821 0.599823 0.133635
v -0.227444 0.667641 0.142438
v -0.227444 0.599940 0.132814
v 0.116219 0.722264 -0.241831
v 0.116219 0.654562 -0.251454
v 0.083654 0.646100 -0.191923
v 0.083654 0.713802 -0.182299
v 0.047287 0.673215 -0.244396
v 0.047287 0.702383 -0.240250
v 0.039988 0.669199 -0.216138
v 0.039988 0.698366 -0.211992
v 0.152476 0.697493 -0.205851
v 0.152476 0.668326 -0.209997
v 0.132822 0.694404 -0.184124
v 0.132822 0.665237 -0.188270
v 0.209339 0.713947 -0.183324
v 0.209339 0.646246 -0.192948
v 0.156315 0.707870 -0.140573
v 0.156315 0.640169 -0.150196
v 0.222433 0.688027 -0.139261
v 0.222433 0.658860 -0.143407
v 0.196636 0.686025 -0.125175
v 0.196636 0.656858 -0.129321
v 0.261985 0.702777 -0.104740
v 0.261985 0.635075 -0.114364
v 0.198098 0.699345 -0.080597
v 0.198098 0.631643 -0.090221
v 0.264513 0.674794 -0.046162
v 0.264513 0.645627 -0.050308
v 0.235505 0.674070 -0.041070
v 0.235505 0.644903 -0.045216
v 0.295821 0.684532 0.023615
v 0.295821 0.616830 0.013991
v 0.227444 0.684415 0.024436
v 0.227444 0.616713 0.014813
v 0.280462 0.656761 0.080698
v 0.280462 0.627594 0.076552
v 0.251004 0.656761 0.080698
v 0.251004 0.627594 0.076552
v -0.116219 0.722264 -0.241831
v -0.116219 0.654562 -0.251454
v -0.083654 0.646100 -0.191923
v -0.083654 0.713802 -0.182299
v -0.047287 0.673215 -0.244396
v -0.047287 0.702383 -0.240250
v -0.039988 0.669199 -0.216138
v -0.039988 0.698366 -0.211992
v 0.000000 0.647876 -0.204416
v 0.000000 0.715577 -0.194792
v 0.000000 0.657499 -0.272117
v 0.000000 0.725201 -0.262494
v -0.152476 0.697493 -0.205851
v -0.152476 0.668326 -0.209997
v -0.132822 0.694404 -0.184124
v -0.132822 0.665237 -0.188270
v -0.209339 0.713947 -0.183324
v -0.209339 0.646246 -0.192948
v -0.156315 0.707870 -0.140573
v -0.156315 0.640169 -0.150196
v -0.222433 0.688027 -0.139261
v -0.222433 0.658860 -0.143407
v -0.196636 0.686025 -0.125175
v -0.196636 0.656858 -0.129321
v -0.261985 0.702777 -0.104740
v -0.261985 0.635075 -0.114364
v -0.198098 0.699345 -0.080597
v -0.198098 0.631643 -0.090221
v -0.264513 0.674794 -0.046162
v -0.264513 0.645627 -0.050308
v -0.235505 0.674070 -0.041070
v -0.235505 0.644903 -0.045216
v -0.295821 0.684532 0.023615
v -0.295821 0.616830 0.013991
v -0.227444 0.684415 0.024436
v -0.227444 0.616713 0.014813
v -0.280462 0.656761 0.080698
v -0.280462 0.627594 0.076552
v -0.251004 0.656761 0.080698
v -0.251004 0.627594 0.076552
vt 0.375000 0.375000
vt 0.625000 0.375000
vt 0.625000 0.500000
vt 0.375000 0.500000
vt 0.625000 0.750000
vt 0.375000 0.750000
vt 0.375000 0.750000
vt 0.625000 0.750000
vt 0.625000 0.500000
vt 0.375000 0.500000
vt 0.250000 0.500000
vt 0.250000 0.750000
vt 0.750000 0.500000
vt 0.750000 0.750000
vt 0.625000 0.875000
vt 0.375000 0.875000
vt 0.375000 0.750000
vt 0.625000 0.750000
vt 0.375000 0.500000
vt 0.375000 0.500000
vt 0.375000 0.750000
vt 0.625000 0.500000
vt 0.375000 0.500000
vt 0.375000 0.750000
vt 0.625000 0.750000
vt 0.625000 0.500000
vt 0.625000 0.500000
vt 0.625000 0.500000
vt 0.375000 0.500000
vt 0.625000 0.750000
vt 0.375000 0.750000
vt 0.375000 0.500000
vt 0.375000 0.750000
vt 0.625000 0.750000
vt 0.625000 0.750000
vt 0.375000 0.750000
vt 0.625000 0.750000
vt 0.625000 0.500000
vt 0.375000 0.500000
vt 0.625000 0.500000
vt 0.625000 0.500000
vt 0.375000 0.500000
vt 0.625000 0.750000
vt 0.375000 0.750000
vt 0.375000 0.500000
vt 0.625000 0.500000
vt 0.625000 0.750000
vt 0.625000 0.750000
vt 0.375000 0.750000
vt 0.375000 0.750000
vt 0.375000 0.500000
vt 0.625000 0.500000
vt 0.625000 0.750000
vt 0.375000 0.750000
vt 0.375000 0.750000
vt 0.375000 0.500000
vt 0.375000 0.500000
vt 0.625000 0.500000
vt 0.375000 0.750000
vt 0.375000 0.500000
vt 0.625000 0.750000
vt 0.625000 0.500000
vt 0.375000 0.500000
vt 0.625000 0.500000
vt 0.625000 0.500000
vt 0.625000 0.750000
vt 0.375000 0.750000
vt 0.375000 0.750000
vt 0.375000 0.500000
vt 0.625000 0.750000
vt 0.625000 0.750000
vt 0.625000 0.750000
vt 0.375000 0.750000
vt 0.625000 0.500000
vt 0.375000 0.500000
vt 0.375000 0.500000
vt 0.625000 0.500000
vt 0.625000 0.500000
vt 0.625000 0.750000
vt 0.375000 0.750000
vt 0.375000 0.375000
vt 0.375000 0.500000
vt 0.625000 0.500000
vt 0.625000 0.375000
vt 0.625000 0.750000
vt 0.625000 0.750000
vt 0.375000 0.750000
vt 0.375000 0.750000
vt 0.375000 0.500000
vt 0.625000 0.500000
vt 0.250000 0.500000
vt 0.250000 0.750000
vt 0.750000 0.750000
vt 0.750000 0.500000
vt 0.375000 0.875000
vt 0.625000 0.875000
vt 0.625000 0.750000
vt 0.375000 0.750000
vt 0.375000 0.750000
vt 0.375000 0.500000
vt 0.375000 0.500000
vt 0.625000 0.500000
vt 0.375000 0.750000
vt 0.375000 0.500000
vt 0.625000 0.750000
vt 0.625000 0.500000
vt 0.375000 0.500000
vt 0.625000 0.500000
vt 0.625000 0.500000
vt 0.625000 0.750000
vt 0.375000 0.750000
vt 0.375000 0.750000
vt 0.375000 0.500000
vt 0.625000 0.750000
vt 0.625000 0.750000
vt 0.625000 0.750000
vt 0.375000 0.750000
vt 0.625000 0.500000
vt 0.375000 0.500000
vt 0.625000 0.500000
vt 0.625000 0.500000
vt 0.375000 0.500000
vt 0.625000 0.750000
vt 0.375000 0.750000
vt 0.375000 0.750000
vt 0.625000 0.750000
vt 0.625000 0.500000
vt 0.375000 0.500000
vt 0.375000 0.750000
vt 0.625000 0.750000
vt 0.375000 0.500000
vt 0.375000 0.500000
vt 0.375000 0.750000
vt 0.625000 0.500000
vt 0.375000 0.500000
vt 0.375000 0.750000
vt 0.625000 0.750000
vt 0.625000 0.500000
vt 0.625000 0.500000
vt 0.625000 0.500000
vt 0.375000 0.500000
vt 0.625000 0.750000
vt 0.375000 0.750000
vt 0.375000 0.500000
vt 0.375000 0.750000
vt 0.625000 0.750000
vt 0.625000 0.750000
vt 0.375000 0.750000
vt 0.625000 0.750000
vt 0.625000 0.500000
vt 0.375000 0.500000
vt 0.625000 0.500000
vn 0.3431 0.1322 -0.9300
vn -0.0632 -0.1405 0.9881
vn -0.5291 0.1194 -0.8401
vn 0.4040 -0.9009 -0.1588
vn -0.2992 0.9163 0.2661
vn 0.4040 0.9094 0.0985
vn -0.2992 -0.9542 0.0002
vn 0.4708 -0.1242 0.8735
vn 0.7333 -0.0957 0.6731
vn -0.2437 -0.9599 0.1383
vn 0.3241 -0.8851 -0.3341
vn 0.3241 0.9431 -0.0742
vn -0.0188 0.1407 -0.9899
vn 0.2464 -0.8516 -0.4627
vn 0.3316 -0.1328 0.9340
vn -0.8688 0.0697 -0.4902
vn -0.2437 0.8834 0.4003
vn -0.9994 0.0049 -0.0342
vn 0.9637 -0.0376 0.2643
vn -0.4136 0.1281 -0.9014
vn 0.2464 0.9468 -0.2071
vn 0.0996 -0.8909 -0.4431
vn -0.1654 0.8452 0.5082
vn -0.1654 -0.9533 0.2525
vn 0.6302 -0.1093 0.7687
vn 0.9077 -0.0591 0.4155
vn 0.9992 -0.0057 0.0404
vn -0.7521 0.0927 -0.6525
vn 0.0996 0.9791 -0.1773
vn -0.9300 0.0517 -0.3640
vn -0.9920 -0.0178 0.1249
vn -0.0173 0.9101 0.4139
vn -0.0173 -0.9894 0.1439
vn 0.0026 0.9852 -0.1714
vn 0.0026 -0.8984 -0.4391
vn 0.9692 0.0347 -0.2439
vn -0.3431 0.1322 -0.9300
vn 0.0632 -0.1405 0.9881
vn 0.5291 0.1194 -0.8401
vn -0.4040 -0.9009 -0.1588
vn 0.2992 0.9163 0.2661
vn -0.4040 0.9094 0.0985
vn 0.2992 -0.9542 0.0002
vn -0.4708 -0.1242 0.8735
vn -0.7333 -0.0957 0.6731
vn 0.2437 -0.9599 0.1383
vn -0.3241 -0.8851 -0.3341
vn -0.3241 0.9431 -0.0742
vn 0.0188 0.1407 -0.9899
vn -0.2464 -0.8516 -0.4627
vn -0.3316 -0.1328 0.9340
vn 0.8688 0.0697 -0.4902
vn 0.2437 0.8834 0.4003
vn 0.9994 0.0049 -0.0342
vn -0.9637 -0.0376 0.2643
vn 0.4136 0.1281 -0.9014
vn -0.2464 0.9468 -0.2071
vn -0.0996 -0.8909 -0.4431
vn 0.1654 0.8452 0.5082
vn 0.1654 -0.9533 0.2525
vn -0.6302 -0.1093 0.7687
vn -0.9077 -0.0591 0.4155
vn -0.9992 -0.0057 0.0404
vn 0.7521 0.0927 -0.6525
vn -0.0996 0.9791 -0.1773
vn 0.9300 0.0517 -0.3640
vn 0.9920 -0.0178 0.1249
vn 0.0173 0.9101 0.4139
vn 0.0173 -0.9894 0.1439
vn -0.0026 0.9852 -0.1714
vn -0.0026 -0.8984 -0.4391
vn -0.9692 0.0347 -0.2439
vn 0.3431 -0.1322 0.9300
vn -0.0632 0.1405 -0.9881
vn -0.5291 -0.1194 0.8401
vn 0.4040 -0.9094 -0.0985
vn -0.2992 0.9542 -0.0002
vn 0.4040 0.9009 0.1588
vn -0.2992 -0.9163 -0.2661
vn 0.4708 0.1242 -0.8735
vn 0.7333 0.0957 -0.6731
vn -0.2437 -0.8834 -0.4003
vn 0.3241 -0.9431 0.0742
vn 0.3241 0.8851 0.3341
vn -0.0188 -0.1407 0.9899
vn 0.2464 -0.9468 0.2071
vn 0.3316 0.1328 -0.9340
vn -0.8688 -0.0697 0.4902
vn -0.2437 0.9599 -0.1383
vn -0.9994 -0.0049 0.0342
vn 0.9637 0.0376 -0.2643
vn -0.4136 -0.1281 0.9014
vn 0.2464 0.8516 0.4627
vn 0.0996 -0.9791 0.1773
vn -0.1654 0.9533 -0.2525
vn -0.1654 -0.8452 -0.5082
vn 0.6302 0.1093 -0.7687
vn 0.9077 0.0591 -0.4155
vn 0.9992 0.0057 -0.0404
vn -0.7521 -0.0927 0.6525
vn 0.0996 0.8909 0.4431
vn -0.9300 -0.0517 0.3640
vn -0.9920 0.0178 -0.1249
vn -0.0173 0.9894 -0.1439
vn -0.0173 -0.9101 -0.4139
vn 0.0026 0.8984 0.4391
vn 0.0026 -0.9852 0.1714
vn 0.9692 -0.0347 0.2439
vn -0.3431 -0.1322 0.9300
vn 0.0632 0.1405 -0.9881
vn 0.5291 -0.1194 0.8401
vn -0.4040 -0.9094 -0.0985
vn 0.2992 0.9542 -0.0002
vn -0.4040 0.9009 0.1588
vn 0.2992 -0.9163 -0.2661
vn -0.4708 0.1242 -0.8735
vn -0.7333 0.0957 -0.6731
vn 0.2437 -0.8834 -0.4003
vn -0.3241 -0.9431 0.0742
vn -0.3241 0.8851 0.3341
vn 0.0188 -0.1407 0.9899
vn -0.2464 -0.9468 0.2071
vn -0.3316 0.1328 -0.9340
vn 0.8688 -0.0697 0.4902
vn 0.2437 0.9599 -0.1383
vn 0.9994 -0.0049 0.0342
vn -0.9637 0.0376 -0.2643
vn 0.4136 -0.1281 0.9014
vn -0.2464 0.8516 0.4627
vn -0.0996 -0.9791 0.1773
vn 0.1654 0.9533 -0.2525
vn 0.1654 -0.8452 -0.5082
vn -0.6302 0.1093 -0.7687
vn -0.9077 0.0591 -0.4155
vn -0.9992 0.0057 -0.0404
vn 0.7521 -0.0927 0.6525
vn -0.0996 0.8909 0.4431
vn 0.9300 -0.0517 0.3640
vn 0.9920 0.0178 -0.1249
vn 0.0173 0.9894 -0.1439
vn 0.0173 -0.9101 -0.4139
vn -0.0026 0.8984 0.4391
vn -0.0026 -0.9852 0.1714
vn -0.9692 -0.0347 0.2439
s off
f 41/1/1 42/2/1 8/3/1 7/4/1
f 6/5/2 5/6/2 2/7/2 1/8/2
f 7/4/3 8/3/3 4/9/3 3/10/3
f 41/11/4 7/4/4 5/6/4 43/12/4
f 8/3/5 6/5/5 1/8/5 4/9/5
f 8/3/6 42/13/6 44/14/6 6/5/6
f 5/6/7 7/4/7 3/10/7 2/7/7
f 5/6/8 6/5/8 44/15/8 43/16/8
f 1/8/9 2/7/9 10/17/9 9/18/9
f 10/17/10 12/19/10 16/20/10 14/21/10
f 2/7/11 3/10/11 12/19/11 10/17/11
f 4/9/12 1/8/12 9/18/12 11/22/12
f 3/10/13 4/9/13 11/22/13 12/19/13
f 14/21/14 16/20/14 20/23/14 18/24/14
f 9/18/15 10/17/15 14/21/15 13/25/15
f 12/19/16 11/22/16 15/26/16 16/20/16
f 11/22/17 9/18/17 13/25/17 15/26/17
f 20/23/18 19/27/18 23/28/18 24/29/18
f 13/25/19 14/21/19 18/24/19 17/30/19
f 16/20/20 15/26/20 19/27/20 20/23/20
f 15/26/21 13/25/21 17/30/21 19/27/21
f 22/31/22 24/29/22 28/32/22 26/33/22
f 19/27/23 17/30/23 21/34/23 23/28/23
f 18/24/24 20/23/24 24/29/24 22/31/24
f 17/30/25 18/24/25 22/31/25 21/34/25
f 25/35/26 26/33/26 30/36/26 29/37/26
f 21/34/27 22/31/27 26/33/27 25/35/27
f 24/29/28 23/28/28 27/38/28 28/32/28
f 23/28/29 21/34/29 25/35/29 27/38/29
f 32/39/30 31/40/30 103/41/30 104/42/30
f 28/32/31 27/38/31 31/40/31 32/39/31
f 27/38/32 25/35/32 29/37/32 31/40/32
f 26/33/33 28/32/33 32/39/33 30/36/33
f 31/40/34 29/37/34 101/43/34 103/41/34
f 30/36/35 32/39/35 104/42/35 102/44/35
f 29/37/36 30/36/36 102/44/36 101/43/36
f 41/1/37 39/45/37 40/46/37 42/2/37
f 38/47/38 33/48/38 34/49/38 37/50/38
f 39/45/39 35/51/39 36/52/39 40/46/39
f 41/11/40 43/12/40 37/50/40 39/45/40
f 40/46/41 36/52/41 33/48/41 38/47/41
f 40/46/42 38/47/42 44/14/42 42/13/42
f 37/50/43 34/49/43 35/51/43 39/45/43
f 37/50/44 43/16/44 44/15/44 38/47/44
f 33/48/45 45/53/45 46/54/45 34/49/45
f 46/54/46 50/55/46 52/56/46 48/57/46
f 34/49/47 46/54/47 48/57/47 35/51/47
f 36/52/48 47/58/48 45/53/48 33/48/48
f 35/51/49 48/57/49 47/58/49 36/52/49
f 50/55/50 54/59/50 56/60/50 52/56/50
f 45/53/51 49/61/51 50/55/51 46/54/51
f 48/57/52 52/56/52 51/62/52 47/58/52
f 47/58/53 51/62/53 49/61/53 45/53/53
f 56/60/54 60/63/54 59/64/54 55/65/54
f 49/61/55 53/66/55 54/59/55 50/55/55
f 52/56/56 56/60/56 55/65/56 51/62/56
f 51/62/57 55/65/57 53/66/57 49/61/57
f 58/67/58 62/68/58 64/69/58 60/63/58
f 55/65/59 59/64/59 57/70/59 53/66/59
f 54/59/60 58/67/60 60/63/60 56/60/60
f 53/66/61 57/70/61 58/67/61 54/59/61
f 61/71/62 65/72/62 66/73/62 62/68/62
f 57/70/63 61/71/63 62/68/63 58/67/63
f 60/63/64 64/69/64 63/74/64 59/64/64
f 59/64/65 63/74/65 61/71/65 57/70/65
f 68/75/66 144/76/66 143/77/66 67/78/66
f 64/69/67 68/75/67 67/78/67 63/74/67
f 63/74/68 67/78/68 65/72/68 61/71/68
f 62/68/69 66/73/69 68/75/69 64/69/69
f 67/78/70 143/77/70 141/79/70 65/72/70
f 66/73/71 142/80/71 144/76/71 68/75/71
f 65/72/72 141/79/72 142/80/72 66/73/72
f 113/81/73 75/82/73 76/83/73 114/84/73
f 74/85/74 69/86/74 70/87/74 73/88/74
f 75/82/75 71/89/75 72/90/75 76/83/75
f 113/91/76 115/92/76 73/88/76 75/82/76
f 76/83/77 72/90/77 69/86/77 74/85/77
f 76/83/78 74/85/78 116/93/78 114/94/78
f 73/88/79 70/87/79 71/89/79 75/82/79
f 73/88/80 115/95/80 116/96/80 74/85/80
f 69/86/81 77/97/81 78/98/81 70/87/81
f 78/98/82 82/99/82 84/100/82 80/101/82
f 70/87/83 78/98/83 80/101/83 71/89/83
f 72/90/84 79/102/84 77/97/84 69/86/84
f 71/89/85 80/101/85 79/102/85 72/90/85
f 82/99/86 86/103/86 88/104/86 84/100/86
f 77/97/87 81/105/87 82/99/87 78/98/87
f 80/101/88 84/100/88 83/106/88 79/102/88
f 79/102/89 83/106/89 81/105/89 77/97/89
f 88/104/90 92/107/90 91/108/90 87/109/90
f 81/105/91 85/110/91 86/103/91 82/99/91
f 84/100/92 88/104/92 87/109/92 83/106/92
f 83/106/93 87/109/93 85/110/93 81/105/93
f 90/111/94 94/112/94 96/113/94 92/107/94
f 87/109/95 91/108/95 89/114/95 85/110/95
f 86/103/96 90/111/96 92/107/96 88/104/96
f 85/110/97 89/114/97 90/111/97 86/103/97
f 93/115/98 97/116/98 98/117/98 94/112/98
f 89/114/99 93/115/99 94/112/99 90/111/99
f 92/107/100 96/113/100 95/118/100 91/108/100
f 91/108/101 95/118/101 93/115/101 89/114/101
f 100/119/102 104/42/102 103/41/102 99/120/102
f 96/113/103 100/119/103 99/120/103 95/118/103
f 95/118/104 99/120/104 97/116/104 93/115/104
f 94/112/105 98/117/105 100/119/105 96/113/105
f 99/120/106 103/41/106 101/43/106 97/116/106
f 98/117/107 102/44/107 104/42/107 100/119/107
f 97/116/108 101/43/108 102/44/108 98/117/108
f 113/81/109 114/84/109 112/121/109 111/122/109
f 110/123/110 109/124/110 106/125/110 105/126/110
f 111/122/111 112/121/111 108/127/111 107/128/111
f 113/91/112 111/122/112 109/124/112 115/92/112
f 112/121/113 110/123/113 105/126/113 108/127/113
f 112/121/114 114/94/114 116/93/114 110/123/114
f 109/124/115 111/122/115 107/128/115 106/125/115
f 109/124/116 110/123/116 116/96/116 115/95/116
f 105/126/117 106/125/117 118/129/117 117/130/117
f 118/129/118 120/131/118 124/132/118 122/133/118
f 106/125/119 107/128/119 120/131/119 118/129/119
f 108/127/120 105/126/120 117/130/120 119/134/120
f 107/128/121 108/127/121 119/134/121 120/131/121
f 122/133/122 124/132/122 128/135/122 126/136/122
f 117/130/123 118/129/123 122/133/123 121/137/123
f 120/131/124 119/134/124 123/138/124 124/132/124
f 119/134/125 117/130/125 121/137/125 123/138/125
f 128/135/126 127/139/126 131/140/126 132/141/126
f 121/137/127 122/133/127 126/136/127 125/142/127
f 124/132/128 123/138/128 127/139/128 128/135/128
f 123/138/129 121/137/129 125/142/129 127/139/129
f 130/143/130 132/141/130 136/144/130 134/145/130
f 127/139/131 125/142/131 129/146/131 131/140/131
f 126/136/132 128/135/132 132/141/132 130/143/132
f 125/142/133 126/136/133 130/143/133 129/146/133
f 133/147/134 134/145/134 138/148/134 137/149/134
f 129/146/135 130/143/135 134/145/135 133/147/135
f 132/141/136 131/140/136 135/150/136 136/144/136
f 131/140/137 129/146/137 133/147/137 135/150/137
f 140/151/138 139/152/138 143/77/138 144/76/138
f 136/144/139 135/150/139 139/152/139 140/151/139
f 135/150/140 133/147/140 137/149/140 139/152/140
f 134/145/141 136/144/141 140/151/141 138/148/141
f 139/152/142 137/149/142 141/79/142 143/77/142
f 138/148/143 140/151/143 144/76/143 142/80/143
f 137/149/144 138/148/144 142/80/144 141/79/144
