# Blender v2.93.0 OBJ File: ''
# www.blender.org
o TavÅŸan_ÅapkasÄ±_Cube.004
v 0.421527 1.928010 0.034117
v 0.384822 1.831244 0.033919
v 0.384822 1.831244 -0.033919
v 0.426873 1.884097 -0.033721
v 0.213631 1.921298 0.033919
v 0.301296 1.990932 0.034117
v 0.213631 1.921298 -0.033919
v 0.227589 1.988390 -0.033721
v 0.587062 1.707041 0.034117
v 0.515579 1.684717 0.033919
v 0.587062 1.707041 -0.033721
v 0.515579 1.684717 -0.033919
v 0.678521 1.480037 0.033919
v 0.609462 1.461681 0.033919
v 0.678521 1.480037 -0.033919
v 0.609462 1.461681 -0.033919
v 0.849826 2.143618 0.034117
v 0.393021 2.382681 0.034117
v 0.393021 2.382681 -0.033721
v 0.849826 2.143618 -0.033721
v 1.237555 2.632054 0.034117
v 0.789727 2.866420 0.034117
v 0.789727 2.866420 -0.033721
v 1.237555 2.632054 -0.033721
v 1.198627 2.919247 0.034117
v 1.102063 2.985833 0.034117
v 1.177915 3.064950 -0.033721
v 1.281618 3.010678 -0.033721
v 0.426873 1.884097 0.034117
v 0.227589 1.988390 0.034117
v 0.779683 2.147772 0.034117
v 0.464744 2.380495 0.034117
v 0.859392 2.861724 0.034117
v 1.165391 2.633663 0.034117
v 1.281618 3.010678 0.034117
v 1.177915 3.064950 0.034117
v 0.780665 2.167328 -0.006729
v 0.483760 2.386724 -0.006729
v 1.144287 2.625395 -0.006730
v 0.855809 2.840397 -0.006730
v 0.443018 1.960150 -0.006729
v 0.329671 2.019468 -0.006729
v 1.175619 2.894626 -0.006730
v 1.084584 2.957399 -0.006730
v 0.704034 1.302073 0.033919
v 0.632585 1.300942 0.033919
v 0.704033 1.302073 -0.033919
v 0.632585 1.300942 -0.033919
v 0.550416 2.646093 0.034117
v 0.550416 2.646093 -0.033721
v 1.084797 2.366430 0.034117
v 1.084797 2.366430 -0.033721
v 0.633935 2.642028 0.034117
v 1.000734 2.369835 0.034117
v 0.643052 2.633109 -0.006730
v 0.988847 2.376503 -0.006730
v -0.421527 1.928010 0.034117
v -0.384822 1.831244 0.033919
v -0.384822 1.831244 -0.033919
v -0.426873 1.884097 -0.033721
v -0.213631 1.921298 0.033919
v -0.301296 1.990932 0.034117
v -0.213631 1.921298 -0.033919
v -0.227589 1.988390 -0.033721
v -0.587062 1.707041 0.034117
v -0.515579 1.684717 0.033919
v -0.587062 1.707041 -0.033721
v -0.515579 1.684717 -0.033919
v -0.678521 1.480037 0.033919
v -0.609462 1.461681 0.033919
v -0.678521 1.480037 -0.033919
v -0.609462 1.461681 -0.033919
v -0.849826 2.143618 0.034117
v -0.393021 2.382681 0.034117
v -0.393021 2.382681 -0.033721
v -0.849826 2.143618 -0.033721
v -1.237555 2.632054 0.034117
v -0.789727 2.866420 0.034117
v -0.789727 2.866420 -0.033721
v -1.237555 2.632054 -0.033721
v -1.198627 2.919247 0.034117
v -1.102063 2.985833 0.034117
v -1.177915 3.064950 -0.033721
v -1.281618 3.010678 -0.033721
v -0.426873 1.884097 0.034117
v -0.227589 1.988390 0.034117
v -0.779683 2.147772 0.034117
v -0.464744 2.380495 0.034117
v -0.859392 2.861724 0.034117
v -1.165391 2.633663 0.034117
v -1.281618 3.010678 0.034117
v -1.177915 3.064950 0.034117
v -0.780665 2.167328 -0.006729
v -0.483760 2.386724 -0.006729
v -1.144287 2.625395 -0.006730
v -0.855809 2.840397 -0.006730
v -0.443018 1.960150 -0.006729
v -0.329671 2.019468 -0.006729
v -1.175619 2.894626 -0.006730
v -1.084584 2.957399 -0.006730
v -0.704034 1.302073 0.033919
v -0.632585 1.300942 0.033919
v -0.704033 1.302073 -0.033919
v -0.632585 1.300942 -0.033919
v 0.000000 1.947885 -0.033919
v 0.000000 2.020849 -0.033721
v 0.000000 1.947885 0.033919
v 0.000000 2.020849 0.034117
v -0.550416 2.646093 0.034117
v -0.550416 2.646093 -0.033721
v -1.084797 2.366430 0.034117
v -1.084797 2.366430 -0.033721
v -0.633935 2.642028 0.034117
v -1.000734 2.369835 0.034117
v -0.643052 2.633109 -0.006730
v -0.988847 2.376503 -0.006730
vt 0.375000 0.750000
vt 0.375000 0.500000
vt 0.375000 0.500000
vt 0.375000 0.750000
vt 0.375000 0.375000
vt 0.625000 0.375000
vt 0.625000 0.500000
vt 0.375000 0.500000
vt 0.625000 0.500000
vt 0.375000 0.500000
vt 0.625000 0.750000
vt 0.625000 0.750000
vt 0.625000 0.750000
vt 0.625000 0.750000
vt 0.250000 0.500000
vt 0.375000 0.750000
vt 0.250000 0.750000
vt 0.375000 0.750000
vt 0.750000 0.500000
vt 0.750000 0.750000
vt 0.625000 0.750000
vt 0.625000 0.750000
vt 0.625000 0.875000
vt 0.375000 0.875000
vt 0.625000 0.750000
vt 0.625000 0.500000
vt 0.625000 0.500000
vt 0.625000 0.500000
vt 0.375000 0.500000
vt 0.625000 0.750000
vt 0.625000 0.500000
vt 0.625000 0.750000
vt 0.625000 0.750000
vt 0.625000 0.500000
vt 0.625000 0.500000
vt 0.625000 0.750000
vt 0.625000 0.500000
vt 0.625000 0.750000
vt 0.625000 0.750000
vt 0.625000 0.500000
vt 0.625000 0.750000
vt 0.625000 0.750000
vt 0.625000 0.750000
vt 0.625000 0.750000
vt 0.625000 0.750000
vt 0.625000 0.500000
vt 0.625000 0.500000
vt 0.625000 0.750000
vt 0.625000 0.750000
vt 0.625000 0.500000
vt 0.625000 0.750000
vt 0.625000 0.750000
vt 0.625000 0.750000
vt 0.625000 0.750000
vt 0.625000 0.750000
vt 0.625000 0.750000
vt 0.625000 0.750000
vt 0.625000 0.750000
vt 0.625000 0.750000
vt 0.625000 0.750000
vt 0.625000 0.750000
vt 0.625000 0.750000
vt 0.625000 0.750000
vt 0.375000 0.750000
vt 0.375000 0.750000
vt 0.375000 0.750000
vt 0.375000 0.500000
vt 0.375000 0.500000
vt 0.375000 0.500000
vt 0.625000 0.500000
vt 0.375000 0.500000
vt 0.625000 0.500000
vt 0.625000 0.750000
vt 0.625000 0.750000
vt 0.625000 0.750000
vt 0.625000 0.750000
vt 0.375000 0.750000
vt 0.375000 0.750000
vt 0.625000 0.750000
vt 0.625000 0.750000
vt 0.625000 0.750000
vt 0.625000 0.500000
vt 0.375000 0.500000
vt 0.625000 0.500000
vt 0.625000 0.500000
vt 0.625000 0.750000
vt 0.625000 0.500000
vt 0.625000 0.500000
vt 0.625000 0.750000
vt 0.625000 0.750000
vt 0.625000 0.750000
vt 0.625000 0.500000
vt 0.625000 0.500000
vt 0.625000 0.750000
vt 0.625000 0.500000
vt 0.625000 0.750000
vt 0.625000 0.750000
vt 0.625000 0.750000
vt 0.625000 0.750000
vt 0.625000 0.750000
vt 0.625000 0.750000
vt 0.625000 0.750000
vt 0.625000 0.500000
vt 0.625000 0.500000
vt 0.625000 0.500000
vt 0.625000 0.750000
vt 0.625000 0.750000
vt 0.625000 0.750000
vt 0.625000 0.750000
vt 0.625000 0.750000
vt 0.625000 0.750000
vt 0.625000 0.750000
vt 0.625000 0.750000
vt 0.625000 0.750000
vt 0.625000 0.750000
vt 0.625000 0.750000
vt 0.625000 0.750000
vt 0.625000 0.750000
vt 0.375000 0.750000
vt 0.625000 0.750000
vn -0.9217 -0.3880 0.0000
vn 0.0004 0.0028 -1.0000
vn 0.0014 0.0027 -1.0000
vn 0.8647 -0.3628 0.3472
vn -0.1235 -0.9923 0.0000
vn -0.4656 -0.8850 0.0000
vn 0.1412 0.9900 0.0000
vn -0.0014 -0.0027 1.0000
vn -0.0004 -0.0028 1.0000
vn -0.0022 -0.0020 1.0000
vn -0.7461 -0.6658 0.0000
vn 0.7415 0.6709 -0.0000
vn 0.0022 0.0020 -1.0000
vn -0.0000 0.0000 -1.0000
vn -0.0011 -0.0009 1.0000
vn 0.0011 0.0009 -1.0000
vn 0.9275 0.3737 -0.0000
vn -0.6773 0.7357 0.0000
vn 0.5230 -0.8523 -0.0000
vn -0.9221 0.3869 0.0000
vn -0.4553 0.8903 0.0000
vn -0.8050 0.5026 0.3153
vn 0.8669 -0.4985 -0.0000
vn 0.4637 0.8860 0.0000
vn 0.4191 -0.8194 0.3911
vn 0.9933 -0.1156 -0.0000
vn 0.0000 0.0000 1.0000
vn 0.3377 0.6452 0.6853
vn -0.8920 0.1038 0.4399
vn -0.4398 -0.6378 0.6322
vn 0.8027 -0.5191 0.2935
vn -0.4863 0.7926 0.3678
vn 0.0158 -0.9999 0.0000
vn 0.9899 0.1419 -0.0000
vn -0.9898 -0.1424 0.0000
vn 0.6661 -0.6836 0.2982
vn 0.6881 -0.7256 -0.0000
vn -0.6748 0.6717 0.3057
vn -0.8584 0.5129 0.0000
vn 0.9217 -0.3880 0.0000
vn -0.0004 0.0028 -1.0000
vn -0.0014 0.0027 -1.0000
vn -0.8647 -0.3628 0.3472
vn 0.1235 -0.9923 0.0000
vn 0.4656 -0.8850 0.0000
vn -0.1412 0.9900 0.0000
vn 0.0014 -0.0027 1.0000
vn 0.0004 -0.0028 1.0000
vn 0.0022 -0.0020 1.0000
vn 0.7461 -0.6658 0.0000
vn -0.7415 0.6709 -0.0000
vn -0.0022 0.0020 -1.0000
vn 0.0011 -0.0009 1.0000
vn -0.0011 0.0009 -1.0000
vn -0.9275 0.3737 -0.0000
vn 0.6773 0.7357 0.0000
vn -0.5230 -0.8523 0.0000
vn 0.9221 0.3869 0.0000
vn 0.4553 0.8903 0.0000
vn 0.8050 0.5026 0.3153
vn -0.8669 -0.4985 -0.0000
vn -0.4637 0.8860 0.0000
vn -0.4191 -0.8194 0.3911
vn -0.9933 -0.1156 -0.0000
vn -0.3377 0.6452 0.6853
vn 0.8920 0.1038 0.4399
vn 0.4398 -0.6378 0.6322
vn -0.8027 -0.5191 0.2935
vn 0.4863 0.7926 0.3678
vn -0.0158 -0.9999 0.0000
vn -0.9899 0.1419 -0.0000
vn 0.9898 -0.1424 0.0000
vn -0.6661 -0.6836 0.2982
vn -0.6881 -0.7256 0.0000
vn 0.6748 0.6717 0.3057
vn 0.8584 0.5129 0.0000
s off
f 10/1/1 12/2/1 16/3/1 14/4/1
f 105/5/2 106/6/2 8/7/2 7/8/2
f 7/8/3 8/7/3 4/9/3 3/10/3
f 32/11/4 6/12/4 42/13/4 38/14/4
f 105/15/5 7/8/5 5/16/5 107/17/5
f 5/16/6 7/8/6 3/10/6 2/18/6
f 8/7/7 106/19/7 108/20/7 30/21/7
f 30/21/8 5/16/8 2/18/8 29/22/8
f 5/16/9 30/21/9 108/23/9 107/24/9
f 29/22/10 2/18/10 10/1/10 9/25/10
f 2/18/11 3/10/11 12/2/11 10/1/11
f 4/9/12 29/22/12 9/25/12 11/26/12
f 3/10/13 4/9/13 11/26/13 12/2/13
f 16/3/14 15/27/14 47/28/14 48/29/14
f 9/25/15 10/1/15 14/4/15 13/30/15
f 12/2/16 11/26/16 15/27/16 16/3/16
f 11/26/17 9/25/17 13/30/17 15/27/17
f 50/31/18 49/32/18 22/33/18 23/34/18
f 29/22/19 4/9/19 20/35/19 17/36/19
f 4/9/14 8/7/14 19/37/14 20/35/14
f 8/7/20 30/21/20 18/38/20 19/37/20
f 23/34/21 22/33/21 36/39/21 27/40/21
f 54/41/22 34/42/22 39/43/22 56/44/22
f 51/45/23 52/46/23 24/47/23 21/48/23
f 52/46/14 50/31/14 23/34/14 24/47/14
f 27/40/24 36/39/24 35/49/24 28/50/24
f 26/51/25 33/52/25 40/53/25 44/54/25
f 21/48/26 24/47/26 28/50/26 35/49/26
f 24/47/14 23/34/14 27/40/14 28/50/14
f 1/55/27 6/12/27 30/21/27 29/22/27
f 31/56/27 1/55/27 29/22/27 17/36/27
f 6/12/27 32/11/27 18/38/27 30/21/27
f 53/57/27 33/52/27 22/33/27 49/32/27
f 54/41/27 31/56/27 17/36/27 51/45/27
f 26/51/27 25/58/27 35/49/27 36/39/27
f 33/52/27 26/51/27 36/39/27 22/33/27
f 25/58/27 34/42/27 21/48/27 35/49/27
f 42/13/27 41/59/27 37/60/27 38/14/27
f 55/61/27 56/44/27 39/43/27 40/53/27
f 40/53/27 39/43/27 43/62/27 44/54/27
f 6/12/28 1/55/28 41/59/28 42/13/28
f 34/42/29 25/58/29 43/62/29 39/43/29
f 25/58/30 26/51/30 44/54/30 43/62/30
f 53/57/31 32/11/31 38/14/31 55/61/31
f 1/55/32 31/56/32 37/60/32 41/59/32
f 48/29/33 47/28/33 45/63/33 46/64/33
f 15/27/34 13/30/34 45/63/34 47/28/34
f 14/4/35 16/3/35 48/29/35 46/64/35
f 13/30/27 14/4/27 46/64/27 45/63/27
f 33/52/36 53/57/36 55/61/36 40/53/36
f 38/14/27 37/60/27 56/44/27 55/61/27
f 34/42/27 54/41/27 51/45/27 21/48/27
f 32/11/27 53/57/27 49/32/27 18/38/27
f 20/35/14 19/37/14 50/31/14 52/46/14
f 17/36/37 20/35/37 52/46/37 51/45/37
f 31/56/38 54/41/38 56/44/38 37/60/38
f 19/37/39 18/38/39 49/32/39 50/31/39
f 66/65/40 70/66/40 72/67/40 68/68/40
f 105/5/41 63/69/41 64/70/41 106/6/41
f 63/69/42 59/71/42 60/72/42 64/70/42
f 88/73/43 94/74/43 98/75/43 62/76/43
f 105/15/44 107/17/44 61/77/44 63/69/44
f 61/77/45 58/78/45 59/71/45 63/69/45
f 64/70/46 86/79/46 108/20/46 106/19/46
f 86/79/47 85/80/47 58/78/47 61/77/47
f 61/77/48 107/24/48 108/23/48 86/79/48
f 85/80/49 65/81/49 66/65/49 58/78/49
f 58/78/50 66/65/50 68/68/50 59/71/50
f 60/72/51 67/82/51 65/81/51 85/80/51
f 59/71/52 68/68/52 67/82/52 60/72/52
f 72/67/14 104/83/14 103/84/14 71/85/14
f 65/81/53 69/86/53 70/66/53 66/65/53
f 68/68/54 72/67/54 71/85/54 67/82/54
f 67/82/55 71/85/55 69/86/55 65/81/55
f 110/87/56 79/88/56 78/89/56 109/90/56
f 85/80/57 73/91/57 76/92/57 60/72/57
f 60/72/14 76/92/14 75/93/14 64/70/14
f 64/70/58 75/93/58 74/94/58 86/79/58
f 79/88/59 83/95/59 92/96/59 78/89/59
f 114/97/60 116/98/60 95/99/60 90/100/60
f 111/101/61 77/102/61 80/103/61 112/104/61
f 112/104/14 80/103/14 79/88/14 110/87/14
f 83/95/62 84/105/62 91/106/62 92/96/62
f 82/107/63 100/108/63 96/109/63 89/110/63
f 77/102/64 91/106/64 84/105/64 80/103/64
f 80/103/14 84/105/14 83/95/14 79/88/14
f 57/111/27 85/80/27 86/79/27 62/76/27
f 87/112/27 73/91/27 85/80/27 57/111/27
f 62/76/27 86/79/27 74/94/27 88/73/27
f 113/113/27 109/90/27 78/89/27 89/110/27
f 114/97/27 111/101/27 73/91/27 87/112/27
f 82/107/27 92/96/27 91/106/27 81/114/27
f 89/110/27 78/89/27 92/96/27 82/107/27
f 81/114/27 91/106/27 77/102/27 90/100/27
f 98/75/27 94/74/27 93/115/27 97/116/27
f 115/117/27 96/109/27 95/99/27 116/98/27
f 96/109/27 100/108/27 99/118/27 95/99/27
f 62/76/65 98/75/65 97/116/65 57/111/65
f 90/100/66 95/99/66 99/118/66 81/114/66
f 81/114/67 99/118/67 100/108/67 82/107/67
f 113/113/68 115/117/68 94/74/68 88/73/68
f 57/111/69 97/116/69 93/115/69 87/112/69
f 104/83/70 102/119/70 101/120/70 103/84/70
f 71/85/71 103/84/71 101/120/71 69/86/71
f 70/66/72 102/119/72 104/83/72 72/67/72
f 69/86/27 101/120/27 102/119/27 70/66/27
f 89/110/73 96/109/73 115/117/73 113/113/73
f 94/74/27 115/117/27 116/98/27 93/115/27
f 90/100/27 77/102/27 111/101/27 114/97/27
f 88/73/27 74/94/27 109/90/27 113/113/27
f 76/92/14 112/104/14 110/87/14 75/93/14
f 73/91/74 111/101/74 112/104/74 76/92/74
f 87/112/75 93/115/75 116/98/75 114/97/75
f 75/93/76 110/87/76 109/90/76 74/94/76
