# Blender v2.93.0 OBJ File: ''
# www.blender.org
o Saç_Cube.009
v 0.437144 0.667144 -0.401704
v 0.608209 1.449333 0.240748
v 0.472726 1.794953 0.304009
v 0.377328 1.459149 -0.628430
v 0.315551 1.694669 -0.530272
v 0.357029 0.858065 -0.652359
v 0.481712 0.877228 -0.396784
v 0.608209 1.437063 -0.329300
v 0.476511 1.858329 -0.249967
v 0.347805 0.726158 -0.643859
v 0.608209 1.188387 -0.038717
v 0.541357 0.845714 -0.080805
v 0.496788 0.640646 -0.303647
v 0.177786 0.526248 -0.689974
v -0.437144 0.667144 -0.401704
v 0.000000 0.861310 -0.646784
v -0.608209 1.449333 0.240748
v -0.472726 1.794953 0.304009
v -0.377328 1.459149 -0.628430
v -0.315551 1.694669 -0.530272
v 0.000000 1.456149 -0.622244
v 0.000000 1.794597 -0.524086
v 0.000000 1.456149 0.240748
v 0.000000 1.953091 0.433283
v -0.357029 0.858065 -0.652359
v -0.481712 0.877228 -0.396784
v -0.608209 1.437063 -0.329300
v -0.476511 1.858329 -0.249967
v 0.000000 1.967618 -0.277756
v 0.000000 0.709535 -0.641864
v -0.347805 0.726158 -0.643859
v -0.608209 1.188387 -0.038717
v 0.000000 1.195203 -0.038717
v -0.541357 0.845714 -0.080805
v 0.000000 0.836613 -0.080805
v -0.496788 0.640646 -0.303647
v 0.000000 0.620404 -0.303647
v 0.331281 0.548797 -0.527911
v 0.263577 0.677024 -0.666600
v 0.000000 0.665278 -0.671397
v -0.000000 0.481741 -0.480159
v 0.376481 0.495150 -0.472708
v -0.331281 0.548797 -0.527911
v -0.263577 0.677024 -0.666600
v -0.376481 0.495150 -0.472708
v 0.141452 0.623343 -0.719090
v 0.000000 0.619223 -0.724511
v 0.000000 0.520681 -0.699467
v 0.000000 0.482231 -0.686197
v 0.202043 0.486396 -0.679096
v -0.177786 0.526248 -0.689974
v -0.141452 0.623343 -0.719090
v -0.202043 0.486396 -0.679096
vt 0.375000 0.750000
vt 0.250000 0.750000
vt 0.250000 0.750000
vt 0.375000 0.750000
vt 0.375000 0.375000
vt 0.625000 0.375000
vt 0.625000 0.500000
vt 0.375000 0.500000
vt 0.375000 0.625000
vt 0.625000 0.625000
vt 0.625000 0.750000
vt 0.375000 0.750000
vt 0.375000 0.375000
vt 0.375000 0.500000
vt 0.375000 0.500000
vt 0.375000 0.375000
vt 0.750000 0.625000
vt 0.750000 0.750000
vt 0.375000 0.750000
vt 0.250000 0.750000
vt 0.250000 0.750000
vt 0.375000 0.750000
vt 0.625000 0.875000
vt 0.375000 0.875000
vt 0.250000 0.750000
vt 0.750000 0.500000
vt 0.375000 0.625000
vt 0.375000 0.625000
vt 0.000000 0.000000
vt 0.000000 0.000000
vt 0.000000 0.000000
vt 0.000000 0.000000
vt 0.000000 0.000000
vt 0.375000 0.625000
vt 0.375000 0.500000
vt 0.375000 0.500000
vt 0.375000 0.625000
vt 0.375000 0.750000
vt 0.375000 0.750000
vt 0.375000 0.500000
vt 0.625000 0.500000
vt 0.375000 0.625000
vt 0.375000 0.750000
vt 0.625000 0.750000
vt 0.625000 0.625000
vt 0.375000 0.500000
vt 0.375000 0.500000
vt 0.375000 0.375000
vt 0.375000 0.625000
vt 0.000000 0.000000
vt 0.375000 0.750000
vt 0.000000 0.000000
vt 0.000000 0.000000
vt 0.000000 0.000000
vt 0.000000 0.000000
vt 0.375000 0.750000
vt 0.375000 0.625000
vt 0.375000 0.625000
vt 0.375000 0.500000
vt 0.375000 0.625000
vt 0.375000 0.750000
vt 0.250000 0.750000
vt 0.375000 0.750000
vt 0.375000 0.375000
vt 0.375000 0.500000
vt 0.250000 0.500000
vt 0.250000 0.625000
vn 0.0002 -0.1192 0.9929
vn 0.0288 0.3263 -0.9448
vn 0.9452 0.3260 0.0180
vn -0.0098 -0.0469 -0.9988
vn 0.2766 0.9591 0.0599
vn 0.0245 -0.7763 0.6298
vn 0.0719 -0.2791 0.9576
vn -0.0160 0.0408 -0.9990
vn -0.0082 -0.7309 0.6825
vn 0.2239 0.7886 -0.5726
vn 0.8400 -0.0638 -0.5388
vn 0.7249 0.3705 -0.5807
vn 0.9045 -0.1465 -0.4006
vn 0.9578 -0.0504 -0.2830
vn 0.9660 -0.1850 -0.1805
vn 1.0000 0.0000 0.0000
vn 0.0206 -0.7276 0.6857
vn -0.7578 -0.4051 -0.5116
vn -0.0002 -0.1192 0.9929
vn -0.0288 0.3263 -0.9448
vn -0.9452 0.3260 0.0180
vn 0.0098 -0.0469 -0.9988
vn -0.2766 0.9591 0.0599
vn -0.0193 0.5015 -0.8649
vn -0.0719 -0.2791 0.9576
vn 0.0160 0.0408 -0.9990
vn 0.0082 -0.7309 0.6825
vn -0.2239 0.7886 -0.5726
vn -0.8400 -0.0638 -0.5388
vn -0.7249 0.3705 -0.5807
vn -0.9045 -0.1465 -0.4006
vn -0.9578 -0.0504 -0.2830
vn -0.9660 -0.1850 -0.1805
vn -1.0000 0.0000 0.0000
vn -0.0206 -0.7276 0.6857
vn -0.0245 -0.7763 0.6298
vn 0.6369 -0.2493 -0.7296
vn -0.7412 0.0796 -0.6665
vn 0.0302 -0.9995 0.0073
vn 0.0116 0.7336 -0.6794
vn 0.7578 -0.4051 -0.5116
vn 0.0193 0.5015 -0.8649
vn 0.8128 -0.0470 -0.5806
vn -0.8128 -0.0470 -0.5806
vn 0.0529 -0.2573 -0.9649
vn 0.0491 -0.2804 -0.9586
vn -0.0529 -0.2573 -0.9649
vn -0.0491 -0.2804 -0.9586
vn -0.6369 -0.2493 -0.7296
vn 0.7412 0.0796 -0.6665
vn -0.0116 0.7336 -0.6794
vn -0.0302 -0.9995 0.0073
s off
f 11/1/1 33/2/1 35/3/1 12/4/1
f 21/5/2 22/6/2 5/7/2 4/8/2
f 8/9/3 9/10/3 3/11/3 2/12/3
f 16/13/4 6/14/4 10/15/4 30/16/4
f 9/10/5 29/17/5 24/18/5 3/11/5
f 13/19/6 37/20/6 41/21/6 42/22/6
f 2/12/7 3/11/7 24/23/7 23/24/7
f 21/5/8 4/8/8 6/14/8 16/13/8
f 2/12/9 23/25/9 33/2/9 11/1/9
f 5/7/10 22/26/10 29/17/10 9/10/10
f 4/8/11 8/9/11 7/27/11 6/14/11
f 4/8/12 5/7/12 9/10/12 8/9/12
f 6/14/13 7/27/13 1/28/13 10/15/13
f 7/29/14 12/30/14 13/19/14 1/28/14
f 8/31/15 11/32/15 12/30/15 7/29/15
f 2/33/16 11/32/16 8/31/16
f 12/4/17 35/3/17 37/20/17 13/19/17
f 15/34/18 31/35/18 44/36/18 43/37/18
f 32/38/19 34/39/19 35/3/19 33/2/19
f 21/5/20 19/40/20 20/41/20 22/6/20
f 27/42/21 17/43/21 18/44/21 28/45/21
f 16/13/22 30/16/22 31/35/22 25/46/22
f 28/45/23 18/44/23 24/18/23 29/17/23
f 30/16/24 10/15/24 39/47/24 40/48/24
f 17/43/25 23/24/25 24/23/25 18/44/25
f 21/5/26 16/13/26 25/46/26 19/40/26
f 17/43/27 32/38/27 33/2/27 23/25/27
f 20/41/28 28/45/28 29/17/28 22/26/28
f 19/40/29 25/46/29 26/49/29 27/42/29
f 19/40/30 27/42/30 28/45/30 20/41/30
f 25/46/31 31/35/31 15/34/31 26/49/31
f 26/50/32 15/34/32 36/51/32 34/52/32
f 27/53/33 26/50/33 34/52/33 32/54/33
f 17/55/34 27/53/34 32/54/34
f 34/39/35 36/51/35 37/20/35 35/3/35
f 37/20/36 36/51/36 45/56/36 41/21/36
f 39/47/37 38/57/37 14/58/37 46/59/37
f 45/56/38 43/37/38 51/60/38 53/61/38
f 42/22/39 41/21/39 49/62/39 50/63/39
f 44/36/40 40/48/40 47/64/40 52/65/40
f 10/15/41 1/28/41 38/57/41 39/47/41
f 31/35/42 30/16/42 40/48/42 44/36/42
f 1/28/43 13/19/43 42/22/43 38/57/43
f 36/51/44 15/34/44 43/37/44 45/56/44
f 47/66/45 46/59/45 14/58/45 48/67/45
f 14/58/46 50/63/46 49/62/46 48/67/46
f 47/66/47 48/67/47 51/60/47 52/65/47
f 51/60/48 48/67/48 49/62/48 53/61/48
f 43/37/49 44/36/49 52/65/49 51/60/49
f 38/57/50 42/22/50 50/63/50 14/58/50
f 40/48/51 39/47/51 46/59/51 47/64/51
f 41/21/52 45/56/52 53/61/52 49/62/52
