# Blender v2.93.0 OBJ File: ''
# www.blender.org
v 0.997952 -0.050000 -0.498861
v 0.997952 0.050000 -0.498861
v 0.895637 0.050000 -0.498861
v 0.799997 -0.600769 -0.398976
v 0.895637 -0.050000 -0.498861
v 0.895637 -0.600769 -0.398976
v 0.997952 -0.050000 -0.398976
v 0.997952 0.050000 -0.398976
v 0.895637 0.050000 -0.398976
v 0.895637 -0.050000 -0.398976
v 0.799997 -0.600769 -0.300980
v 0.895637 -0.600769 -0.300980
v 0.799997 0.050000 -0.300980
v 0.799997 -0.050000 -0.300980
v 0.895637 -0.050000 -0.300980
v 0.895637 0.050000 -0.300980
v 0.799997 -0.050000 -0.498861
v 0.799997 0.050000 -0.498861
v 0.799997 -0.050000 -0.398976
v 0.799997 0.050000 -0.398976
v 0.997952 0.050000 -0.300980
v 0.997952 -0.050000 -0.300980
v -0.997952 -0.050000 -0.498861
v -0.997952 0.050000 -0.498861
v 0.000000 -0.050000 -0.498861
v 0.000000 0.050000 -0.498861
v -0.895637 0.050000 -0.498861
v -0.799997 -0.600769 -0.398976
v -0.895637 -0.050000 -0.498861
v -0.895637 -0.600769 -0.398976
v -0.997952 -0.050000 -0.398976
v -0.997952 0.050000 -0.398976
v 0.000000 0.050000 -0.398976
v 0.000000 -0.050000 -0.398976
v -0.895637 0.050000 -0.398976
v -0.895637 -0.050000 -0.398976
v -0.799997 -0.600769 -0.300980
v -0.895637 -0.600769 -0.300980
v -0.799997 0.050000 -0.300980
v -0.799997 -0.050000 -0.300980
v -0.895637 -0.050000 -0.300980
v -0.895637 0.050000 -0.300980
v -0.799997 -0.050000 -0.498861
v 0.000000 -0.050000 -0.300980
v -0.799997 0.050000 -0.498861
v 0.000000 0.050000 -0.300980
v -0.799997 -0.050000 -0.398976
v -0.799997 0.050000 -0.398976
v -0.997952 0.050000 -0.300980
v -0.997952 -0.050000 -0.300980
v 0.997952 -0.050000 0.498861
v 0.997952 0.050000 0.498861
v 0.895637 0.050000 0.498861
v 0.799997 -0.600769 0.398976
v 0.895637 -0.050000 0.498861
v 0.895637 -0.600769 0.398976
v 0.997952 -0.050000 0.398976
v 0.997952 0.050000 0.398976
v 0.895637 0.050000 0.398976
v 0.895637 -0.050000 0.398976
v 0.799997 -0.600769 0.300980
v 0.895637 -0.600769 0.300980
v 0.799997 0.050000 0.300980
v 0.799997 -0.050000 0.300980
v 0.895637 -0.050000 0.300980
v 0.895637 0.050000 0.300980
v 0.997952 -0.050000 0.000000
v 0.997952 0.050000 0.000000
v 0.895637 0.050000 0.000000
v 0.895637 -0.050000 0.000000
v 0.799997 -0.050000 0.498861
v 0.799997 0.050000 0.498861
v 0.799997 -0.050000 0.398976
v 0.799997 0.050000 0.398976
v 0.997952 0.050000 0.300980
v 0.997952 -0.050000 0.300980
v 0.799997 0.050000 0.000000
v 0.799997 -0.050000 0.000000
v -0.997952 -0.050000 0.498861
v -0.997952 0.050000 0.498861
v 0.000000 -0.050000 0.498861
v 0.000000 0.050000 0.498861
v -0.895637 0.050000 0.498861
v -0.799997 -0.600769 0.398976
v -0.895637 -0.050000 0.498861
v -0.895637 -0.600769 0.398976
v -0.997952 -0.050000 0.398976
v -0.997952 0.050000 0.398976
v 0.000000 0.050000 0.398976
v 0.000000 -0.050000 0.398976
v -0.895637 0.050000 0.398976
v -0.895637 -0.050000 0.398976
v -0.799997 -0.600769 0.300980
v -0.895637 -0.600769 0.300980
v -0.799997 0.050000 0.300980
v -0.799997 -0.050000 0.300980
v -0.895637 -0.050000 0.300980
v -0.895637 0.050000 0.300980
v -0.997952 -0.050000 0.000000
v -0.997952 0.050000 0.000000
v 0.000000 0.050000 0.000000
v 0.000000 -0.050000 0.000000
v -0.895637 0.050000 0.000000
v -0.895637 -0.050000 0.000000
v -0.799997 -0.050000 0.498861
v 0.000000 -0.050000 0.300980
v -0.799997 0.050000 0.498861
v 0.000000 0.050000 0.300980
v -0.799997 -0.050000 0.398976
v -0.799997 0.050000 0.398976
v -0.997952 0.050000 0.300980
v -0.997952 -0.050000 0.300980
v -0.799997 0.050000 0.000000
v -0.799997 -0.050000 0.000000
vt 0.375000 0.487202
vt 0.625000 0.487202
vt 0.625000 0.500000
vt 0.375000 0.500000
vt 0.362202 0.525000
vt 0.362202 0.574737
vt 0.362202 0.574737
vt 0.362202 0.525000
vt 0.375000 0.475240
vt 0.625000 0.475240
vt 0.350240 0.500000
vt 0.362202 0.500000
vt 0.350240 0.525000
vt 0.637798 0.500000
vt 0.637798 0.525000
vt 0.625000 0.525000
vt 0.649760 0.500000
vt 0.750000 0.500000
vt 0.750000 0.525000
vt 0.649760 0.525000
vt 0.375000 0.525000
vt 0.350240 0.525000
vt 0.350240 0.574737
vt 0.350240 0.574737
vt 0.625000 0.574737
vt 0.375000 0.574737
vt 0.625000 0.624474
vt 0.375000 0.624474
vt 0.362202 0.624474
vt 0.649760 0.574737
vt 0.750000 0.574737
vt 0.750000 0.624474
vt 0.649760 0.624474
vt 0.637798 0.574737
vt 0.637798 0.624474
vt 0.350240 0.624474
vt 0.250000 0.574737
vt 0.250000 0.624474
vt 0.250000 0.500000
vt 0.250000 0.525000
vt 0.375000 0.375000
vt 0.625000 0.375000
vt 0.375000 0.487202
vt 0.375000 0.500000
vt 0.625000 0.500000
vt 0.625000 0.487202
vt 0.362202 0.525000
vt 0.362202 0.525000
vt 0.362202 0.574737
vt 0.362202 0.574737
vt 0.375000 0.475240
vt 0.625000 0.475240
vt 0.350240 0.500000
vt 0.350240 0.525000
vt 0.362202 0.500000
vt 0.625000 0.525000
vt 0.637798 0.525000
vt 0.637798 0.500000
vt 0.649760 0.500000
vt 0.649760 0.525000
vt 0.375000 0.525000
vt 0.350240 0.525000
vt 0.350240 0.574737
vt 0.350240 0.574737
vt 0.375000 0.574737
vt 0.625000 0.574737
vt 0.375000 0.624474
vt 0.625000 0.624474
vt 0.362202 0.624474
vt 0.649760 0.574737
vt 0.649760 0.624474
vt 0.637798 0.624474
vt 0.637798 0.574737
vt 0.350240 0.624474
vt 0.375000 0.487202
vt 0.375000 0.500000
vt 0.625000 0.500000
vt 0.625000 0.487202
vt 0.362202 0.525000
vt 0.362202 0.525000
vt 0.362202 0.574737
vt 0.362202 0.574737
vt 0.375000 0.475240
vt 0.625000 0.475240
vt 0.350240 0.500000
vt 0.350240 0.525000
vt 0.362202 0.500000
vt 0.625000 0.525000
vt 0.637798 0.525000
vt 0.637798 0.500000
vt 0.649760 0.500000
vt 0.649760 0.525000
vt 0.750000 0.525000
vt 0.750000 0.500000
vt 0.375000 0.525000
vt 0.350240 0.525000
vt 0.350240 0.574737
vt 0.350240 0.574737
vt 0.375000 0.574737
vt 0.625000 0.574737
vt 0.649760 0.574737
vt 0.750000 0.574737
vt 0.637798 0.574737
vt 0.250000 0.574737
vt 0.250000 0.500000
vt 0.250000 0.525000
vt 0.375000 0.375000
vt 0.625000 0.375000
vt 0.375000 0.487202
vt 0.625000 0.487202
vt 0.625000 0.500000
vt 0.375000 0.500000
vt 0.362202 0.525000
vt 0.362202 0.574737
vt 0.362202 0.574737
vt 0.362202 0.525000
vt 0.375000 0.475240
vt 0.625000 0.475240
vt 0.350240 0.500000
vt 0.362202 0.500000
vt 0.350240 0.525000
vt 0.637798 0.500000
vt 0.637798 0.525000
vt 0.625000 0.525000
vt 0.649760 0.500000
vt 0.649760 0.525000
vt 0.375000 0.525000
vt 0.350240 0.525000
vt 0.350240 0.574737
vt 0.350240 0.574737
vt 0.625000 0.574737
vt 0.375000 0.574737
vt 0.649760 0.574737
vt 0.637798 0.574737
vn 0.0000 0.0000 -1.0000
vn 1.0000 0.0000 0.0000
vn 0.0000 -1.0000 0.0000
vn 0.0000 1.0000 0.0000
vn -1.0000 0.0000 0.0000
vn 0.0000 0.0000 1.0000
s off
f 5/1/1 3/2/1 2/3/1 1/4/1
f 10/5/2 15/6/2 12/7/2 6/8/2
f 17/9/1 18/10/1 3/2/1 5/1/1
f 17/11/3 5/12/3 10/5/3 19/13/3
f 2/3/4 3/14/4 9/15/4 8/16/4
f 18/17/4 26/18/4 33/19/4 20/20/4
f 5/12/3 1/4/3 7/21/3 10/5/3
f 1/4/2 2/3/2 8/16/2 7/21/2
f 19/13/1 10/5/1 6/8/1 4/22/1
f 14/23/5 19/13/5 4/22/5 11/24/5
f 4/22/3 6/8/3 12/7/3 11/24/3
f 7/21/2 8/16/2 21/25/2 22/26/2
f 10/5/3 7/21/3 22/26/3 15/6/3
f 22/26/2 21/25/2 68/27/2 67/28/2
f 15/6/3 22/26/3 67/28/3 70/29/3
f 13/30/4 46/31/4 101/32/4 77/33/4
f 21/25/4 16/34/4 69/35/4 68/27/4
f 14/23/3 15/6/3 70/29/3 78/36/3
f 44/37/3 14/23/3 78/36/3 102/38/3
f 16/34/4 13/30/4 77/33/4 69/35/4
f 20/20/4 33/19/4 46/31/4 13/30/4
f 8/16/4 9/15/4 16/34/4 21/25/4
f 3/14/4 18/17/4 20/20/4 9/15/4
f 25/39/3 17/11/3 19/13/3 34/40/3
f 25/41/1 26/42/1 18/10/1 17/9/1
f 15/6/6 14/23/6 11/24/6 12/7/6
f 34/40/3 19/13/3 14/23/3 44/37/3
f 9/15/4 20/20/4 13/30/4 16/34/4
f 29/43/1 23/44/1 24/45/1 27/46/1
f 36/47/5 30/48/5 38/49/5 41/50/5
f 43/51/1 29/43/1 27/46/1 45/52/1
f 43/53/3 47/54/3 36/47/3 29/55/3
f 24/45/4 32/56/4 35/57/4 27/58/4
f 45/59/4 48/60/4 33/19/4 26/18/4
f 29/55/3 36/47/3 31/61/3 23/44/3
f 23/44/5 31/61/5 32/56/5 24/45/5
f 47/54/1 28/62/1 30/48/1 36/47/1
f 40/63/2 37/64/2 28/62/2 47/54/2
f 28/62/3 37/64/3 38/49/3 30/48/3
f 31/61/5 50/65/5 49/66/5 32/56/5
f 36/47/3 41/50/3 50/65/3 31/61/3
f 50/65/5 99/67/5 100/68/5 49/66/5
f 41/50/3 104/69/3 99/67/3 50/65/3
f 39/70/4 113/71/4 101/32/4 46/31/4
f 49/66/4 100/68/4 103/72/4 42/73/4
f 40/63/3 114/74/3 104/69/3 41/50/3
f 44/37/3 102/38/3 114/74/3 40/63/3
f 42/73/4 103/72/4 113/71/4 39/70/4
f 48/60/4 39/70/4 46/31/4 33/19/4
f 32/56/4 49/66/4 42/73/4 35/57/4
f 27/58/4 35/57/4 48/60/4 45/59/4
f 25/39/3 34/40/3 47/54/3 43/53/3
f 25/41/1 43/51/1 45/52/1 26/42/1
f 41/50/6 38/49/6 37/64/6 40/63/6
f 34/40/3 44/37/3 40/63/3 47/54/3
f 35/57/4 42/73/4 39/70/4 48/60/4
f 55/75/6 51/76/6 52/77/6 53/78/6
f 60/79/2 56/80/2 62/81/2 65/82/2
f 71/83/6 55/75/6 53/78/6 72/84/6
f 71/85/3 73/86/3 60/79/3 55/87/3
f 52/77/4 58/88/4 59/89/4 53/90/4
f 72/91/4 74/92/4 89/93/4 82/94/4
f 55/87/3 60/79/3 57/95/3 51/76/3
f 51/76/2 57/95/2 58/88/2 52/77/2
f 73/86/6 54/96/6 56/80/6 60/79/6
f 64/97/5 61/98/5 54/96/5 73/86/5
f 54/96/3 61/98/3 62/81/3 56/80/3
f 57/95/2 76/99/2 75/100/2 58/88/2
f 60/79/3 65/82/3 76/99/3 57/95/3
f 76/99/2 67/28/2 68/27/2 75/100/2
f 65/82/3 70/29/3 67/28/3 76/99/3
f 63/101/4 77/33/4 101/32/4 108/102/4
f 75/100/4 68/27/4 69/35/4 66/103/4
f 64/97/3 78/36/3 70/29/3 65/82/3
f 106/104/3 102/38/3 78/36/3 64/97/3
f 66/103/4 69/35/4 77/33/4 63/101/4
f 74/92/4 63/101/4 108/102/4 89/93/4
f 58/88/4 75/100/4 66/103/4 59/89/4
f 53/90/4 59/89/4 74/92/4 72/91/4
f 81/105/3 90/106/3 73/86/3 71/85/3
f 81/107/6 71/83/6 72/84/6 82/108/6
f 65/82/1 62/81/1 61/98/1 64/97/1
f 90/106/3 106/104/3 64/97/3 73/86/3
f 59/89/4 66/103/4 63/101/4 74/92/4
f 85/109/6 83/110/6 80/111/6 79/112/6
f 92/113/5 97/114/5 94/115/5 86/116/5
f 105/117/6 107/118/6 83/110/6 85/109/6
f 105/119/3 85/120/3 92/113/3 109/121/3
f 80/111/4 83/122/4 91/123/4 88/124/4
f 107/125/4 82/94/4 89/93/4 110/126/4
f 85/120/3 79/112/3 87/127/3 92/113/3
f 79/112/5 80/111/5 88/124/5 87/127/5
f 109/121/6 92/113/6 86/116/6 84/128/6
f 96/129/2 109/121/2 84/128/2 93/130/2
f 84/128/3 86/116/3 94/115/3 93/130/3
f 87/127/5 88/124/5 111/131/5 112/132/5
f 92/113/3 87/127/3 112/132/3 97/114/3
f 112/132/5 111/131/5 100/68/5 99/67/5
f 97/114/3 112/132/3 99/67/3 104/69/3
f 95/133/4 108/102/4 101/32/4 113/71/4
f 111/131/4 98/134/4 103/72/4 100/68/4
f 96/129/3 97/114/3 104/69/3 114/74/3
f 106/104/3 96/129/3 114/74/3 102/38/3
f 98/134/4 95/133/4 113/71/4 103/72/4
f 110/126/4 89/93/4 108/102/4 95/133/4
f 88/124/4 91/123/4 98/134/4 111/131/4
f 83/122/4 107/125/4 110/126/4 91/123/4
f 81/105/3 105/119/3 109/121/3 90/106/3
f 81/107/6 82/108/6 107/118/6 105/117/6
f 97/114/1 96/129/1 93/130/1 94/115/1
f 90/106/3 109/121/3 96/129/3 106/104/3
f 91/123/4 110/126/4 95/133/4 98/134/4
