# Blender v2.93.0 OBJ File: ''
# www.blender.org
o Åapka_Cube.002
v -0.232206 1.904230 0.232206
v -0.327782 2.475188 0.373480
v -0.232206 1.904230 -0.232206
v -0.327782 2.475188 -0.327782
v 0.232206 1.904230 0.232206
v 0.327782 2.475188 0.373480
v 0.232206 1.904230 -0.232206
v 0.327782 2.475188 -0.327782
v 0.000000 1.904230 -0.315741
v 0.000000 2.559795 -0.547654
v 0.000000 1.904230 0.315741
v 0.000000 2.559795 0.445701
v -0.318261 1.904230 -0.000000
v -0.521085 2.559795 -0.000000
v 0.318261 1.904230 -0.000000
v 0.397845 2.559795 -0.000000
v 0.000000 2.707601 -0.000000
v -0.327782 2.032696 0.373480
v -0.327782 2.032696 -0.327782
v 0.327782 2.032696 -0.327782
v 0.327782 2.032696 0.373480
v 0.000000 2.032696 0.445701
v 0.000000 2.032696 -0.547654
v 0.397845 2.032696 -0.000000
v -0.521085 2.032696 -0.000000
v -0.779954 1.705249 -0.000000
v -0.569061 1.643953 0.569061
v -0.569061 1.725225 -0.569061
v -0.569061 1.596760 -0.569061
v 0.000000 1.644926 -0.773780
v 0.569061 1.739459 -0.569061
v 0.569061 1.610993 -0.569061
v 0.779954 1.705249 -0.000000
v 0.569061 1.714640 0.569061
v 0.569061 1.586175 0.569061
v 0.000000 1.586175 0.773780
v 0.000000 1.714640 0.773780
v 0.000000 1.773391 -0.773780
v 0.779954 1.833715 -0.000000
v -0.779954 1.833715 -0.000000
v -0.569061 1.772418 0.569061
v -0.318261 2.208946 -0.000000
v -0.232206 2.208946 0.232206
v 0.000000 2.208946 -0.315741
v -0.232206 2.208946 -0.232206
v 0.318261 2.208946 -0.000000
v 0.232206 2.208946 -0.232206
v 0.000000 2.208946 0.315741
v 0.232206 2.208946 0.232206
v 0.000000 2.208946 -0.000000
vt 0.423990 0.125000
vt 0.625000 0.125000
vt 0.625000 0.250000
vt 0.423990 0.250000
vt 0.423990 0.375000
vt 0.625000 0.375000
vt 0.625000 0.500000
vt 0.423990 0.500000
vt 0.423990 0.625000
vt 0.625000 0.625000
vt 0.625000 0.750000
vt 0.423990 0.750000
vt 0.423990 0.875000
vt 0.625000 0.875000
vt 0.625000 1.000000
vt 0.423990 1.000000
vt 0.250000 0.500000
vt 0.375000 0.500000
vt 0.375000 0.500000
vt 0.250000 0.500000
vt 0.750000 0.625000
vt 0.875000 0.625000
vt 0.875000 0.750000
vt 0.750000 0.750000
vt 0.250000 0.750000
vt 0.125000 0.750000
vt 0.125000 0.750000
vt 0.250000 0.750000
vt 0.375000 0.625000
vt 0.375000 0.625000
vt 0.750000 0.500000
vt 0.875000 0.500000
vt 0.125000 0.625000
vt 0.125000 0.500000
vt 0.125000 0.500000
vt 0.125000 0.625000
vt 0.423990 0.000000
vt 0.625000 0.000000
vt 0.250000 0.500000
vt 0.375000 0.500000
vt 0.423990 0.625000
vt 0.423990 0.500000
vt 0.125000 0.500000
vt 0.423990 0.125000
vt 0.423990 0.000000
vt 0.375000 0.750000
vt 0.375000 0.750000
vt 0.250000 0.750000
vt 0.423990 0.250000
vt 0.423990 0.375000
vt 0.423990 0.750000
vt 0.375000 0.000000
vt 0.375000 0.125000
vt 0.375000 0.625000
vt 0.375000 0.250000
vt 0.375000 0.375000
vt 0.423990 0.875000
vt 0.375000 0.875000
vt 0.423990 1.000000
vt 0.375000 1.000000
vt 0.125000 0.625000
vt 0.125000 0.750000
vt 0.250000 0.625000
vt 0.375000 0.750000
vn -0.8614 0.0000 -0.5080
vn 0.5571 0.0000 -0.8305
vn 0.9829 0.0000 0.1844
vn -0.2152 0.0000 0.9766
vn -0.3385 0.0000 0.9410
vn -0.2754 0.9058 0.3220
vn 0.3180 0.9046 0.2838
vn 0.3385 0.0000 -0.9410
vn 0.2152 0.0000 0.9766
vn -0.5571 0.0000 -0.8305
vn -0.9377 0.0000 0.3475
vn 0.3662 0.8917 -0.2660
vn -0.3248 0.8939 -0.3090
vn 0.9377 0.0000 0.3475
vn 0.9779 0.0000 -0.2090
vn -0.8881 0.0000 0.4597
vn -0.2137 -0.8423 0.4949
vn 0.5374 0.8045 -0.2529
vn 0.2296 -0.8358 0.4987
vn -0.5798 0.7583 0.2980
vn -0.2010 -0.8046 -0.5587
vn -0.5780 0.7374 -0.3497
vn 0.3311 0.6895 -0.6442
vn 0.5643 0.7813 0.2669
vn 0.9377 0.0000 -0.3475
vn -0.3385 0.0000 -0.9410
vn 0.3385 0.0000 0.9410
vn -0.9377 0.0000 -0.3475
vn -0.3432 0.6802 -0.6477
vn 0.4293 -0.8601 0.2755
vn 0.2195 0.6683 0.7107
vn 0.1362 -0.8277 -0.5445
vn -0.4250 -0.8672 0.2595
vn -0.1694 0.6994 0.6944
vn -0.4323 -0.8548 -0.2872
vn 0.4144 -0.8828 -0.2211
vn 0.0000 -1.0000 0.0000
s off
f 25/1/1 14/2/1 4/3/1 19/4/1
f 23/5/2 10/6/2 8/7/2 20/8/2
f 24/9/3 16/10/3 6/11/3 21/12/3
f 22/13/4 12/14/4 2/15/4 18/16/4
f 9/17/5 7/18/5 47/19/5 44/20/5
f 17/21/6 14/22/6 2/23/6 12/24/6
f 16/10/7 17/21/7 12/24/7 6/11/7
f 11/25/8 1/26/8 43/27/8 48/28/8
f 21/12/9 6/11/9 12/14/9 22/13/9
f 19/4/10 4/3/10 10/6/10 23/5/10
f 7/18/11 15/29/11 46/30/11 47/19/11
f 8/7/12 10/31/12 17/21/12 16/10/12
f 10/31/13 4/32/13 14/22/13 17/21/13
f 13/33/14 3/34/14 45/35/14 42/36/14
f 20/8/15 8/7/15 16/10/15 24/9/15
f 18/37/16 2/38/16 14/2/16 25/1/16
f 7/18/17 9/17/17 30/39/17 32/40/17
f 20/8/18 24/9/18 39/41/18 31/42/18
f 9/17/19 3/34/19 29/43/19 30/39/19
f 18/37/20 25/1/20 40/44/20 41/45/20
f 11/25/21 5/46/21 35/47/21 36/48/21
f 25/1/22 19/4/22 28/49/22 40/44/22
f 23/5/23 20/8/23 31/42/23 38/50/23
f 24/9/24 21/12/24 34/51/24 39/41/24
f 27/52/11 41/45/11 40/44/11 26/53/11
f 32/40/25 31/42/25 39/41/25 33/54/25
f 29/55/26 28/49/26 38/50/26 30/56/26
f 35/47/27 34/51/27 37/57/27 36/58/27
f 36/58/5 37/57/5 41/59/5 27/60/5
f 33/54/14 39/41/14 34/51/14 35/47/14
f 30/56/8 38/50/8 31/42/8 32/40/8
f 26/53/28 40/44/28 28/49/28 29/55/28
f 19/4/29 23/5/29 38/50/29 28/49/29
f 3/34/30 13/33/30 26/61/30 29/43/30
f 21/12/31 22/13/31 37/57/31 34/51/31
f 1/26/32 11/25/32 36/48/32 27/62/32
f 15/29/33 7/18/33 32/40/33 33/54/33
f 22/13/34 18/16/34 41/59/34 37/57/34
f 5/46/35 15/29/35 33/54/35 35/47/35
f 13/33/36 1/26/36 27/62/36 26/61/36
f 50/63/37 46/30/37 49/64/37 48/28/37
f 42/36/37 50/63/37 48/28/37 43/27/37
f 45/35/37 44/20/37 50/63/37 42/36/37
f 44/20/37 47/19/37 46/30/37 50/63/37
f 5/46/26 11/25/26 48/28/26 49/64/26
f 3/34/27 9/17/27 44/20/27 45/35/27
f 15/29/28 5/46/28 49/64/28 46/30/28
f 1/26/25 13/33/25 42/36/25 43/27/25
